<?xml version="1.0" ?><!DOCTYPE svg  PUBLIC '-//W3C//DTD SVG 1.1//EN'  'http://www.w3.org/Graphics/SVG/1.1/DTD/svg11.dtd'><svg enable-background="new 0 0 24 24" height="24px" id="Layer_1" version="1.1" viewBox="0 0 24 24" width="24px" xml:space="preserve" xmlns="http://www.w3.org/2000/svg" xmlns:xlink="http://www.w3.org/1999/xlink"><g><path d="M21.32,6.502h-3c-0.276,0-0.5-0.225-0.5-0.5s0.224-0.5,0.5-0.5h3c0.275,0,0.5,0.225,0.5,0.5S21.596,6.502,21.32,6.502z"/><path d="M22.32,9.502h-4c-0.276,0-0.5-0.225-0.5-0.5s0.224-0.5,0.5-0.5h4c0.275,0,0.5,0.225,0.5,0.5S22.596,9.502,22.32,9.502z"/><path d="M22.32,12.502h-4c-0.276,0-0.5-0.224-0.5-0.5s0.224-0.5,0.5-0.5h4c0.275,0,0.5,0.225,0.5,0.5S22.596,12.502,22.32,12.502z"/><path d="M14.087,21.5c-0.675,0-1.317-0.346-1.692-0.961c-0.048-0.078-0.073-0.168-0.073-0.26V17.9c0-0.176-0.075-0.39-0.147-0.596   c-0.486-1.396-1.456-2.65-2.959-3.834c-0.111-0.091-0.219-0.191-0.312-0.306c-0.336-0.403-0.924-0.665-1.5-0.665   c-0.276,0-0.5-0.223-0.5-0.5c0-0.274,0.224-0.5,0.5-0.5c0.874,0,1.743,0.396,2.268,1.027c0.05,0.059,0.103,0.106,0.16,0.154   c1.659,1.307,2.733,2.709,3.286,4.289c0.09,0.26,0.203,0.579,0.203,0.928v2.225c0.277,0.355,0.744,0.479,1.172,0.289   c0.876-0.379,1.576-1.988,0.666-5.277c-0.042-0.15-0.012-0.313,0.084-0.438c0.095-0.123,0.242-0.197,0.396-0.197h5.411   c1.265,0,1.628-0.279,1.628-1.248c0-0.752-0.135-0.752-0.359-0.752c-0.237,0-0.442-0.167-0.489-0.399   c-0.047-0.233,0.078-0.468,0.297-0.562c0.258-0.106,0.442-0.42,0.479-0.813c0.039-0.403-0.084-0.989-0.564-1.312   c-0.218-0.146-0.287-0.437-0.156-0.664c0.188-0.323,0.266-0.938,0.055-1.489c-0.104-0.274-0.325-0.637-0.778-0.787   c-0.253-0.086-0.396-0.354-0.323-0.608c0.11-0.394,0.042-1.024-0.357-1.555c-0.28-0.37-0.824-0.813-1.828-0.813h-8.188   c-0.3,0-0.535,0.087-0.721,0.265C9.251,4.241,8.605,4.5,7.922,4.5H7.32c-0.276,0-0.5-0.224-0.5-0.5c0-0.274,0.224-0.5,0.5-0.5   h0.604c0.423,0,0.822-0.161,1.126-0.454C9.42,2.69,9.909,2.5,10.465,2.5h8.188c1.104,0,2.035,0.429,2.625,1.206   c0.438,0.579,0.654,1.325,0.601,1.999c0.449,0.259,0.796,0.673,0.997,1.2c0.236,0.62,0.25,1.354,0.053,1.949   c0.494,0.492,0.748,1.213,0.676,1.968c-0.037,0.387-0.158,0.733-0.347,1.015c0.423,0.421,0.423,1.121,0.423,1.416   c0,2.248-1.842,2.248-2.628,2.248h-4.768c0.806,3.488-0.162,5.297-1.396,5.83C14.627,21.445,14.355,21.5,14.087,21.5z"/><path d="M6.82,13.502h-6c-0.276,0-0.5-0.225-0.5-0.5v-10c0-0.275,0.224-0.5,0.5-0.5h6c0.275,0,0.5,0.225,0.5,0.5v10   C7.32,13.277,7.097,13.502,6.82,13.502z M1.32,12.502h5v-9h-5V12.502z"/></g></svg>