<?xml version="1.0" ?><svg viewBox="0 0 64 64" xmlns="http://www.w3.org/2000/svg"><defs><style>.cls-1{fill:none;stroke:#000;stroke-linecap:round;stroke-linejoin:round;stroke-width:2px;}</style></defs><title/><g data-name="Layer 6" id="Layer_6"><path class="cls-1" d="M50.47,17.15V46.23a4.64,4.64,0,0,1-4.62,4.63H17.26a4.64,4.64,0,0,1-4.62-4.62V17.15a4.64,4.64,0,0,1,4.62-4.62H45.85"/><circle cx="50.52" cy="13.82" r="1"/><path class="cls-1" d="M25.22,24A5.12,5.12,0,0,0,20.85,29V35A5.14,5.14,0,0,0,26,40.1h4.74"/><path class="cls-1" d="M38.43,23.9H26a3.67,3.67,0,0,0-.75.07"/><path class="cls-1" d="M30.71,40.1h7.72A5.14,5.14,0,0,0,43.55,35V29a5.12,5.12,0,0,0-1.32-3.43"/><polyline class="cls-1" points="32.77 30.26 35.79 32 32.77 33.74 29.75 35.49 29.75 32 29.75 28.52"/></g></svg>